<?xml version="1.0" encoding="utf-8"?>
<!-- Generator: Adobe Illustrator 16.0.0, SVG Export Plug-In . SVG Version: 6.00 Build 0)  -->
<!DOCTYPE svg PUBLIC "-//W3C//DTD SVG 1.1//EN" "http://www.w3.org/Graphics/SVG/1.1/DTD/svg11.dtd">
<svg version="1.1" xmlns="http://www.w3.org/2000/svg" xmlns:xlink="http://www.w3.org/1999/xlink" x="0px" y="0px" width="48px"
	 height="48px" viewBox="0 0 48 48" enable-background="new 0 0 48 48" xml:space="preserve">
<g id="图层_1">
	<path fill="none" d="M0,0h48v48H0V0z"/>
	<path fill="#4F9BD6" d="M8,12H4v28c0,2.2,1.8,4,4,4h28v-4H8V12z"/>
</g>
<g id="图层_3">
	<defs>
		<path id="SVGID_1_" d="M40.837,4.911c-2.089-0.66-4.085-0.941-6.283-0.941c-3.669,0-7.47,0.752-10.196,2.822
			c-2.729-2.069-7.544-2.822-11.211-2.822c-3.669,0-8.134,0.752-11.212,2.822v27.556c0,0.471,1.412,0.939,1.881,0.939
			c0.188,0,0.751-0.094,0.94-0.094c2.54-1.221,6.442-2.069,9.169-2.069c3.668,0,7.734,0.753,10.463,2.822
			c2.54-1.599,7.206-2.822,10.404-2.822c3.103,0,6.331,0.565,8.963,1.976c0.189,0.094-0.301,0.094-0.112,0.094
			c0.471,0,0.356-0.469,0.356-0.939V6.791C42.974,5.945,42.247,5.38,40.837,4.911z M39.896,30.302
			c-2.052-0.658-4.583-0.939-6.839-0.939c-3.198,0-7.524,1.224-10.603,2.821V10.553c3.078-1.599,7.404-2.821,10.603-2.821
			c2.256,0,4.787,0.281,6.839,0.94V30.302z"/>
	</defs>
	<clipPath id="SVGID_2_">
		<use xlink:href="#SVGID_1_"  overflow="visible"/>
	</clipPath>
	<g clip-path="url(#SVGID_2_)">
		<g>
			<rect x="12.02" y="3.962" fill="#4F9BD5" width="31.996" height="32"/>
		</g>
	</g>
</g>
</svg>
